<?xml version="1.0" encoding="UTF-8" standalone="no"?>
<!DOCTYPE svg PUBLIC "-//W3C//DTD SVG 1.1//EN"
 "http://www.w3.org/Graphics/SVG/1.1/DTD/svg11.dtd">
<!-- Generated by graphviz version 5.0.0 (20220707.1540)
 -->
<!-- Pages: 1 -->
<svg width="154pt" height="305pt"
 viewBox="0.00 0.00 153.66 304.86" xmlns="http://www.w3.org/2000/svg" xmlns:xlink="http://www.w3.org/1999/xlink">
<g id="graph0" class="graph" transform="scale(1 1) rotate(0) translate(4 300.86)">
<polygon fill="white" stroke="transparent" points="-4,4 -4,-300.86 149.66,-300.86 149.66,4 -4,4"/>
<!-- business_unit -->
<g id="node1" class="node">
<title>business_unit</title>
<ellipse fill="none" stroke="black" cx="72.83" cy="-148.43" rx="63.78" ry="37.45"/>
<text text-anchor="middle" x="72.83" y="-159.73" font-family="Times,serif" font-size="14.00">business_unit</text>
<text text-anchor="middle" x="72.83" y="-144.73" font-family="Times,serif" font-size="14.00">~</text>
<text text-anchor="middle" x="72.83" y="-129.73" font-family="Times,serif" font-size="14.00">Bernoulli</text>
</g>
<!-- promotion -->
<g id="node2" class="node">
<title>promotion</title>
<ellipse fill="none" stroke="black" cx="72.83" cy="-37.48" rx="52.15" ry="37.45"/>
<text text-anchor="middle" x="72.83" y="-48.78" font-family="Times,serif" font-size="14.00">promotion</text>
<text text-anchor="middle" x="72.83" y="-33.78" font-family="Times,serif" font-size="14.00">~</text>
<text text-anchor="middle" x="72.83" y="-18.78" font-family="Times,serif" font-size="14.00">Bernoulli</text>
</g>
<!-- business_unit&#45;&gt;promotion -->
<g id="edge2" class="edge">
<title>business_unit&#45;&gt;promotion</title>
<path fill="none" stroke="black" d="M72.83,-110.85C72.83,-102.67 72.83,-93.89 72.83,-85.37"/>
<polygon fill="black" stroke="black" points="76.33,-85.15 72.83,-75.15 69.33,-85.15 76.33,-85.15"/>
</g>
<!-- ethnic_category -->
<g id="node3" class="node">
<title>ethnic_category</title>
<ellipse fill="none" stroke="black" cx="72.83" cy="-259.38" rx="72.66" ry="37.45"/>
<text text-anchor="middle" x="72.83" y="-270.68" font-family="Times,serif" font-size="14.00">ethnic_category</text>
<text text-anchor="middle" x="72.83" y="-255.68" font-family="Times,serif" font-size="14.00">~</text>
<text text-anchor="middle" x="72.83" y="-240.68" font-family="Times,serif" font-size="14.00">Bernoulli</text>
</g>
<!-- ethnic_category&#45;&gt;business_unit -->
<g id="edge1" class="edge">
<title>ethnic_category&#45;&gt;business_unit</title>
<path fill="none" stroke="black" d="M72.83,-221.8C72.83,-213.63 72.83,-204.85 72.83,-196.32"/>
<polygon fill="black" stroke="black" points="76.33,-196.1 72.83,-186.1 69.33,-196.1 76.33,-196.1"/>
</g>
</g>
</svg>
