<?xml version="1.0" encoding="UTF-8" standalone="no"?>
<!DOCTYPE svg PUBLIC "-//W3C//DTD SVG 1.1//EN"
 "http://www.w3.org/Graphics/SVG/1.1/DTD/svg11.dtd">
<!-- Generated by graphviz version 5.0.0 (20220707.1540)
 -->
<!-- Pages: 1 -->
<svg width="421pt" height="305pt"
 viewBox="0.00 0.00 421.19 304.86" xmlns="http://www.w3.org/2000/svg" xmlns:xlink="http://www.w3.org/1999/xlink">
<g id="graph0" class="graph" transform="scale(1 1) rotate(0) translate(4 300.86)">
<polygon fill="white" stroke="transparent" points="-4,4 -4,-300.86 417.19,-300.86 417.19,4 -4,4"/>
<!-- business_unit -->
<g id="node1" class="node">
<title>business_unit</title>
<ellipse fill="none" stroke="black" cx="63.64" cy="-148.43" rx="63.78" ry="37.45"/>
<text text-anchor="middle" x="63.64" y="-159.73" font-family="Times,serif" font-size="14.00">business_unit</text>
<text text-anchor="middle" x="63.64" y="-144.73" font-family="Times,serif" font-size="14.00">~</text>
<text text-anchor="middle" x="63.64" y="-129.73" font-family="Times,serif" font-size="14.00">Bernoulli</text>
</g>
<!-- promotion -->
<g id="node2" class="node">
<title>promotion</title>
<ellipse fill="none" stroke="black" cx="155.64" cy="-37.48" rx="52.15" ry="37.45"/>
<text text-anchor="middle" x="155.64" y="-48.78" font-family="Times,serif" font-size="14.00">promotion</text>
<text text-anchor="middle" x="155.64" y="-33.78" font-family="Times,serif" font-size="14.00">~</text>
<text text-anchor="middle" x="155.64" y="-18.78" font-family="Times,serif" font-size="14.00">Bernoulli</text>
</g>
<!-- business_unit&#45;&gt;promotion -->
<g id="edge3" class="edge">
<title>business_unit&#45;&gt;promotion</title>
<path fill="none" stroke="black" d="M91.49,-114.44C101.3,-102.83 112.41,-89.67 122.6,-77.6"/>
<polygon fill="black" stroke="black" points="125.36,-79.76 129.14,-69.86 120.02,-75.24 125.36,-79.76"/>
</g>
<!-- ethnic_category -->
<g id="node3" class="node">
<title>ethnic_category</title>
<ellipse fill="none" stroke="black" cx="109.64" cy="-259.38" rx="72.66" ry="37.45"/>
<text text-anchor="middle" x="109.64" y="-270.68" font-family="Times,serif" font-size="14.00">ethnic_category</text>
<text text-anchor="middle" x="109.64" y="-255.68" font-family="Times,serif" font-size="14.00">~</text>
<text text-anchor="middle" x="109.64" y="-240.68" font-family="Times,serif" font-size="14.00">Bernoulli</text>
</g>
<!-- ethnic_category&#45;&gt;business_unit -->
<g id="edge1" class="edge">
<title>ethnic_category&#45;&gt;business_unit</title>
<path fill="none" stroke="black" d="M94.58,-222.71C90.77,-213.68 86.62,-203.86 82.64,-194.44"/>
<polygon fill="black" stroke="black" points="85.85,-193.04 78.74,-185.19 79.4,-195.76 85.85,-193.04"/>
</g>
<!-- ethnic_category&#45;&gt;promotion -->
<g id="edge4" class="edge">
<title>ethnic_category&#45;&gt;promotion</title>
<path fill="none" stroke="black" d="M124.89,-222.4C129.26,-210.91 133.64,-198.03 136.64,-185.91 144.83,-152.77 149.63,-114.52 152.36,-85.29"/>
<polygon fill="black" stroke="black" points="155.88,-85.22 153.27,-74.95 148.9,-84.61 155.88,-85.22"/>
</g>
<!-- drop_minority_application -->
<g id="node4" class="node">
<title>drop_minority_application</title>
<ellipse fill="none" stroke="black" cx="298.64" cy="-148.43" rx="114.6" ry="37.45"/>
<text text-anchor="middle" x="298.64" y="-159.73" font-family="Times,serif" font-size="14.00">drop_minority_application</text>
<text text-anchor="middle" x="298.64" y="-144.73" font-family="Times,serif" font-size="14.00">~</text>
<text text-anchor="middle" x="298.64" y="-129.73" font-family="Times,serif" font-size="14.00">Bernoulli</text>
</g>
<!-- drop_minority_application&#45;&gt;promotion -->
<g id="edge2" class="edge">
<title>drop_minority_application&#45;&gt;promotion</title>
<path fill="none" stroke="black" d="M254.18,-113.55C236.7,-100.24 216.7,-85 199.31,-71.75"/>
<polygon fill="black" stroke="black" points="201.07,-68.69 191,-65.42 196.83,-74.26 201.07,-68.69"/>
</g>
</g>
</svg>
