<?xml version="1.0" encoding="UTF-8" standalone="no"?>
<!DOCTYPE svg PUBLIC "-//W3C//DTD SVG 1.1//EN"
 "http://www.w3.org/Graphics/SVG/1.1/DTD/svg11.dtd">
<!-- Generated by graphviz version 5.0.0 (20220707.1540)
 -->
<!-- Pages: 1 -->
<svg width="288pt" height="305pt"
 viewBox="0.00 0.00 287.87 304.86" xmlns="http://www.w3.org/2000/svg" xmlns:xlink="http://www.w3.org/1999/xlink">
<g id="graph0" class="graph" transform="scale(1 1) rotate(0) translate(4 300.86)">
<polygon fill="white" stroke="transparent" points="-4,4 -4,-300.86 283.87,-300.86 283.87,4 -4,4"/>
<!-- ethnic_category -->
<g id="node1" class="node">
<title>ethnic_category</title>
<ellipse fill="none" stroke="black" cx="72.83" cy="-259.38" rx="72.66" ry="37.45"/>
<text text-anchor="middle" x="72.83" y="-270.68" font-family="Times,serif" font-size="14.00">ethnic_category</text>
<text text-anchor="middle" x="72.83" y="-255.68" font-family="Times,serif" font-size="14.00">~</text>
<text text-anchor="middle" x="72.83" y="-240.68" font-family="Times,serif" font-size="14.00">Bernoulli</text>
</g>
<!-- promotion -->
<g id="node2" class="node">
<title>promotion</title>
<ellipse fill="none" stroke="black" cx="144.83" cy="-37.48" rx="52.15" ry="37.45"/>
<text text-anchor="middle" x="144.83" y="-48.78" font-family="Times,serif" font-size="14.00">promotion</text>
<text text-anchor="middle" x="144.83" y="-33.78" font-family="Times,serif" font-size="14.00">~</text>
<text text-anchor="middle" x="144.83" y="-18.78" font-family="Times,serif" font-size="14.00">Bernoulli</text>
</g>
<!-- ethnic_category&#45;&gt;promotion -->
<g id="edge3" class="edge">
<title>ethnic_category&#45;&gt;promotion</title>
<path fill="none" stroke="black" d="M64.92,-222.02C59.97,-191.22 57.03,-146.52 71.83,-110.95 78.03,-96.08 88.92,-82.68 100.44,-71.57"/>
<polygon fill="black" stroke="black" points="103.03,-73.94 108.05,-64.61 98.31,-68.78 103.03,-73.94"/>
</g>
<!-- business_unit -->
<g id="node4" class="node">
<title>business_unit</title>
<ellipse fill="none" stroke="black" cx="144.83" cy="-148.43" rx="63.78" ry="37.45"/>
<text text-anchor="middle" x="144.83" y="-159.73" font-family="Times,serif" font-size="14.00">business_unit</text>
<text text-anchor="middle" x="144.83" y="-144.73" font-family="Times,serif" font-size="14.00">~</text>
<text text-anchor="middle" x="144.83" y="-129.73" font-family="Times,serif" font-size="14.00">Bernoulli</text>
</g>
<!-- ethnic_category&#45;&gt;business_unit -->
<g id="edge1" class="edge">
<title>ethnic_category&#45;&gt;business_unit</title>
<path fill="none" stroke="black" d="M95.81,-223.61C102.43,-213.59 109.74,-202.54 116.64,-192.09"/>
<polygon fill="black" stroke="black" points="119.72,-193.77 122.32,-183.5 113.88,-189.91 119.72,-193.77"/>
</g>
<!-- citizenship -->
<g id="node3" class="node">
<title>citizenship</title>
<ellipse fill="none" stroke="black" cx="226.83" cy="-259.38" rx="53.07" ry="37.45"/>
<text text-anchor="middle" x="226.83" y="-270.68" font-family="Times,serif" font-size="14.00">citizenship</text>
<text text-anchor="middle" x="226.83" y="-255.68" font-family="Times,serif" font-size="14.00">~</text>
<text text-anchor="middle" x="226.83" y="-240.68" font-family="Times,serif" font-size="14.00">Bernoulli</text>
</g>
<!-- citizenship&#45;&gt;promotion -->
<g id="edge4" class="edge">
<title>citizenship&#45;&gt;promotion</title>
<path fill="none" stroke="black" d="M231.61,-221.82C234.06,-190.89 233.74,-146.11 217.83,-110.95 211.19,-96.27 200.16,-82.94 188.66,-71.82"/>
<polygon fill="black" stroke="black" points="190.81,-69.04 181.08,-64.84 186.07,-74.19 190.81,-69.04"/>
</g>
<!-- citizenship&#45;&gt;business_unit -->
<g id="edge2" class="edge">
<title>citizenship&#45;&gt;business_unit</title>
<path fill="none" stroke="black" d="M202.45,-225.99C194.25,-215.09 184.97,-202.76 176.3,-191.24"/>
<polygon fill="black" stroke="black" points="178.92,-188.91 170.11,-183.02 173.33,-193.12 178.92,-188.91"/>
</g>
<!-- business_unit&#45;&gt;promotion -->
<g id="edge5" class="edge">
<title>business_unit&#45;&gt;promotion</title>
<path fill="none" stroke="black" d="M144.83,-110.85C144.83,-102.67 144.83,-93.89 144.83,-85.37"/>
<polygon fill="black" stroke="black" points="148.33,-85.15 144.83,-75.15 141.33,-85.15 148.33,-85.15"/>
</g>
</g>
</svg>
